<svg xmlns="http://www.w3.org/2000/svg" width="1600" height="560" viewBox="0 0 1600 560" role="img" aria-labelledby="t">
<title id="t">Meridian semantic zoom</title>
<defs><linearGradient id="z" x1="0" x2="1"><stop stop-color="#2de6d0"/><stop offset=".52" stop-color="#31a9ff"/><stop offset="1" stop-color="#8b62ff"/></linearGradient><filter id="g"><feGaussianBlur stdDeviation="4" result="b"/><feMerge><feMergeNode in="b"/><feMergeNode in="SourceGraphic"/></feMerge></filter></defs>
<rect width="1600" height="560" rx="22" fill="#050b10"/>
<text x="800" y="58" text-anchor="middle" fill="#edf7f4" font-family="Arial" font-size="30" font-weight="700">SEMANTIC ZOOM</text>
<text x="800" y="88" text-anchor="middle" fill="#67cdbf" font-family="Arial" font-size="13" letter-spacing="5">SAME WORLD · DIFFERENT QUESTIONS · DEEPER ANSWERS</text>
<path d="M118 274 H1482" stroke="url(#z)" stroke-width="2"/>
<g><circle cx="145" cy="274" r="96" fill="#0c1c24" stroke="#3d9fb2" stroke-width="1.8"/><circle cx="145" cy="274" r="86" fill="none" stroke="#163946"/><text x="145" y="420" text-anchor="middle" fill="#e5f1ee" font-family="Arial" font-size="16" font-weight="700">PLANET</text><text x="145" y="447" text-anchor="middle" fill="#6d8580" font-family="Arial" font-size="12">systems · corridors · gravity</text></g><g><circle cx="405" cy="274" r="82" fill="#0c1c24" stroke="#3d9fb2" stroke-width="1.8"/><circle cx="405" cy="274" r="72" fill="none" stroke="#163946"/><text x="405" y="420" text-anchor="middle" fill="#e5f1ee" font-family="Arial" font-size="16" font-weight="700">REGION</text><text x="405" y="447" text-anchor="middle" fill="#6d8580" font-family="Arial" font-size="12">trade · policy · energy</text></g><g><circle cx="665" cy="274" r="68" fill="#0c1c24" stroke="#3d9fb2" stroke-width="1.8"/><circle cx="665" cy="274" r="58" fill="none" stroke="#163946"/><text x="665" y="420" text-anchor="middle" fill="#e5f1ee" font-family="Arial" font-size="16" font-weight="700">COUNTRY</text><text x="665" y="447" text-anchor="middle" fill="#6d8580" font-family="Arial" font-size="12">ports · grids · facilities</text></g><g><circle cx="925" cy="274" r="56" fill="#0c1c24" stroke="#3d9fb2" stroke-width="1.8"/><circle cx="925" cy="274" r="46" fill="none" stroke="#163946"/><text x="925" y="420" text-anchor="middle" fill="#e5f1ee" font-family="Arial" font-size="16" font-weight="700">METRO</text><text x="925" y="447" text-anchor="middle" fill="#6d8580" font-family="Arial" font-size="12">clusters · operators · hazards</text></g><g><circle cx="1185" cy="274" r="44" fill="#0c1c24" stroke="#3d9fb2" stroke-width="1.8"/><circle cx="1185" cy="274" r="34" fill="none" stroke="#163946"/><text x="1185" y="420" text-anchor="middle" fill="#e5f1ee" font-family="Arial" font-size="16" font-weight="700">LOCAL</text><text x="1185" y="447" text-anchor="middle" fill="#6d8580" font-family="Arial" font-size="12">vessels · terminals · routes</text></g><g><circle cx="1445" cy="274" r="34" fill="#0c1c24" stroke="#3d9fb2" stroke-width="1.8"/><circle cx="1445" cy="274" r="24" fill="none" stroke="#163946"/><text x="1445" y="420" text-anchor="middle" fill="#e5f1ee" font-family="Arial" font-size="16" font-weight="700">ASSET</text><text x="1445" y="447" text-anchor="middle" fill="#6d8580" font-family="Arial" font-size="12">ownership · proof · timeline</text></g>
<g fill="#5fe5d3" filter="url(#g)"><circle cx="145" cy="274" r="4"/><circle cx="405" cy="274" r="4"/><circle cx="665" cy="274" r="4"/><circle cx="925" cy="274" r="4"/><circle cx="1185" cy="274" r="4"/><circle cx="1445" cy="274" r="4"/></g>
<text x="90" y="510" fill="#54dccc" font-family="Arial" font-size="11" letter-spacing="4">GLOBAL CONTEXT</text>
<text x="1510" y="510" text-anchor="end" fill="#54dccc" font-family="Arial" font-size="11" letter-spacing="4">LOCAL TRUTH</text>
</svg>